<svg xmlns="http://www.w3.org/2000/svg" xmlns:xlink="http://www.w3.org/1999/xlink" width="auto" zoomAndPan="magnify" viewBox="0 0 375 374.999991" height="auto" preserveAspectRatio="xMidYMid meet" version="1.0"><defs><clipPath id="3a8f2277d2"><path d="M 30.9375 11 L 339 11 L 339 364 L 30.9375 364 Z M 30.9375 11 " clip-rule="nonzero"/></clipPath></defs><g clip-path="url(#3a8f2277d2)"><path fill="#fb2576" d="M 318.773438 151.699219 L 97.699219 18.890625 C 69.132812 -0.0117188 30.992188 20.445312 30.992188 54.667969 L 30.992188 320.292969 C 30.992188 354.515625 69.132812 374.972656 97.699219 356.074219 L 124.566406 339.933594 C 111.820312 334.8125 102.789062 322.351562 102.789062 307.8125 L 102.789062 177.71875 C 102.789062 158.632812 118.34375 143.109375 137.464844 143.109375 C 144.101562 143.109375 150.585938 145.042969 156.242188 148.710938 L 264.558594 213.777344 L 264.804688 213.941406 C 274.507812 220.363281 280.300781 231.136719 280.300781 242.769531 C 280.300781 244.023438 280.222656 245.269531 280.089844 246.507812 L 318.773438 223.261719 C 344.429688 206.289062 344.429688 168.671875 318.773438 151.699219 " fill-opacity="1" fill-rule="nonzero"/></g><path fill="#3f0071" d="M 153.402344 261.121094 C 142.457031 261.121094 132.296875 252.429688 132.296875 240.066406 L 132.296875 157.316406 C 133.976562 156.886719 135.714844 156.660156 137.476562 156.660156 C 141.367188 156.660156 145.359375 157.761719 149.027344 160.1875 L 238.066406 213.675781 L 164.96875 257.59375 C 161.296875 260.019531 157.300781 261.121094 153.402344 261.121094 " fill-opacity="1" fill-rule="nonzero"/><path fill="#3f0071" d="M 132.296875 143.496094 L 132.296875 143.492188 C 133.9375 143.246094 135.617188 143.117188 137.324219 143.109375 C 135.617188 143.117188 133.9375 143.25 132.296875 143.496094 M 137.34375 143.109375 C 137.351562 143.109375 137.355469 143.109375 137.363281 143.109375 C 137.355469 143.109375 137.351562 143.109375 137.34375 143.109375 M 137.398438 143.109375 C 137.402344 143.109375 137.40625 143.109375 137.414062 143.109375 C 137.40625 143.109375 137.402344 143.109375 137.398438 143.109375 " fill-opacity="1" fill-rule="nonzero"/><path fill="#150050" d="M 251.230469 205.769531 L 156.242188 148.710938 C 150.585938 145.042969 144.101562 143.109375 137.464844 143.109375 C 137.449219 143.109375 137.429688 143.109375 137.414062 143.109375 C 137.40625 143.109375 137.402344 143.109375 137.398438 143.109375 C 137.386719 143.109375 137.375 143.109375 137.363281 143.109375 C 137.355469 143.109375 137.351562 143.109375 137.34375 143.109375 C 137.335938 143.109375 137.332031 143.109375 137.324219 143.109375 C 135.617188 143.117188 133.9375 143.246094 132.296875 143.492188 L 132.296875 109.964844 C 132.296875 97.601562 142.457031 88.910156 153.402344 88.910156 C 157.300781 88.910156 161.296875 90.007812 164.96875 92.4375 L 273.253906 157.488281 C 285.816406 165.804688 285.816406 184.226562 273.253906 192.542969 L 251.230469 205.769531 " fill-opacity="1" fill-rule="nonzero"/></svg>